<svg width="74" height="74" viewBox="0 0 74 74" fill="none" xmlns="http://www.w3.org/2000/svg">
<circle cx="37" cy="37" r="37" fill="#FFEAEA"/>
<g clip-path="url(#clip0_11_164)">
<path d="M36.6665 35.1667C32.8832 34.1833 31.6665 33.1667 31.6665 31.5833C31.6665 29.7667 33.3499 28.5 36.1665 28.5C39.1332 28.5 40.2332 29.9167 40.3332 32H44.0165C43.8999 29.1333 42.1499 26.5 38.6665 25.65V22H33.6665V25.6C30.4332 26.3 27.8332 28.4 27.8332 31.6167C27.8332 35.4667 31.0165 37.3833 35.6665 38.5C39.8332 39.5 40.6665 40.9667 40.6665 42.5167C40.6665 43.6667 39.8499 45.5 36.1665 45.5C32.7332 45.5 31.3832 43.9667 31.1999 42H27.5332C27.7332 45.65 30.4665 47.7 33.6665 48.3833V52H38.6665V48.4167C41.9165 47.8 44.4999 45.9167 44.4999 42.5C44.4999 37.7667 40.4499 36.15 36.6665 35.1667Z" fill="#FF0000"/>
</g>
<defs>
<clipPath id="clip0_11_164">
<rect width="40" height="40" fill="white" transform="translate(17 17)"/>
</clipPath>
</defs>
</svg>
