<svg width="74" height="74" viewBox="0 0 74 74" fill="none" xmlns="http://www.w3.org/2000/svg">
<circle cx="37" cy="37" r="37" fill="#D1F3E0"/>
<g clip-path="url(#clip0_11_139)">
<path d="M29.9405 26.9016C31.7091 26.9016 33.1428 25.4679 33.1428 23.6993C33.1428 21.9308 31.7091 20.4971 29.9405 20.4971C28.172 20.4971 26.7383 21.9308 26.7383 23.6993C26.7383 25.4679 28.172 26.9016 29.9405 26.9016Z" fill="#3CB878"/>
<path d="M36.4512 54.7129L35.281 46.1167C35.2636 45.9895 35.2326 45.8644 35.1884 45.7438L33.5171 41.1872V37.409C32.3501 37.9723 30.9555 37.488 30.3844 36.3295L28.0771 31.6344L31.3396 35.5294C32.0265 36.3495 33.3356 36.1459 33.7456 35.1633L36.0015 29.7565C36.3043 29.0306 35.9614 28.1967 35.2356 27.8938C34.5098 27.5908 33.6757 27.9339 33.3729 28.6597L32.0189 31.9048L30.2604 29.8056L31.2436 30.5269L32.3089 27.9841H27.4963C26.4651 27.9841 25.603 28.7058 25.3862 29.6716V29.4357C25.3862 28.104 24.3067 27.0244 22.975 27.0244C21.6434 27.0244 20.5637 28.104 20.5637 29.4357V32.6614H19.884C19.4211 32.6614 19.0459 33.0367 19.0459 33.4995V36.1816C19.0459 36.6445 19.4211 37.0198 19.884 37.0198H20.5637C20.5637 38.6745 21.8429 39.794 23.2695 39.794H25.3331V41.2458H25.3349L25.1039 46.765L22.0098 54.275C21.6353 55.1841 22.0686 56.2245 22.9776 56.5991C23.8868 56.9736 24.9273 56.5401 25.3016 55.6313L28.5154 47.8311C28.5945 47.6392 28.6394 47.4348 28.6481 47.2274C28.9135 40.8862 28.8965 41.3168 28.8965 41.2458H29.7462L31.7792 46.7886L32.9232 55.1932C33.056 56.1684 33.9544 56.8497 34.9272 56.717C35.9016 56.5842 36.5838 55.687 36.4512 54.7129Z" fill="#3CB878"/>
<path d="M48.4259 23.6711C50.1945 23.6711 51.6282 22.2374 51.6282 20.4689C51.6282 18.7003 50.1945 17.2666 48.4259 17.2666C46.6573 17.2666 45.2236 18.7003 45.2236 20.4689C45.2236 22.2374 46.6573 23.6711 48.4259 23.6711Z" fill="#3CB878"/>
<path d="M54.9371 51.4824L53.767 42.8862C53.7496 42.759 53.7186 42.634 53.6744 42.5133L52.0031 37.9567V36.445C51.3629 36.2414 47.6841 35.0717 46.9441 34.8363C46.07 34.5584 45.5369 33.7079 45.6252 32.8303L46.1461 27.6249L46.859 32.6555C46.9358 33.1972 47.3161 33.647 47.8375 33.8128L52.5066 35.2974C53.2559 35.5357 54.0569 35.1215 54.2952 34.3718C54.5335 33.6223 54.1191 32.8214 53.3696 32.5831L49.5534 31.3697L48.9661 27.2254L50.1837 30.2626L52.0031 30.8411V26.9168C52.0031 25.7221 51.0346 24.7536 49.8399 24.7536H45.9823C44.9511 24.7536 44.089 25.4754 43.8722 26.4411V26.2053C43.8722 24.8736 42.7926 23.7939 41.4609 23.7939C40.1291 23.7939 39.0496 24.8735 39.0496 26.2053V30.1787H38.4162C37.9534 30.1787 37.5781 30.554 37.5781 31.0169V33.3518C37.5781 33.8147 37.9534 34.1899 38.4162 34.1899H39.0707C39.2346 35.5274 40.3736 36.5634 41.7555 36.5634H43.8191V38.0152H43.8209L43.5899 43.5344L40.4958 51.0445C40.1212 51.9534 40.5546 52.994 41.4636 53.3685C42.3735 53.7433 43.4134 53.3089 43.7876 52.4008L47.0013 44.6006C47.0804 44.4086 47.1253 44.2043 47.134 43.9969C47.3994 37.6549 47.3824 38.0866 47.3824 38.0153H48.2321L50.2651 43.558L51.4092 51.9627C51.5419 52.9379 52.4404 53.6191 53.4131 53.4865C54.3875 53.3537 55.0698 52.4565 54.9371 51.4824Z" fill="#3CB878"/>
</g>
<defs>
<clipPath id="clip0_11_139">
<rect width="39.4667" height="39.4667" fill="white" transform="translate(17.2666 17.2666)"/>
</clipPath>
</defs>
</svg>
